<?xml version="1.0" standalone="no"?>
<!DOCTYPE svg PUBLIC "-//W3C//DTD SVG 20010904//EN"
 "http://www.w3.org/TR/2001/REC-SVG-20010904/DTD/svg10.dtd">
<svg version="1.0" xmlns="http://www.w3.org/2000/svg"
 width="567.000000pt" height="567.000000pt" viewBox="0 0 567.000000 567.000000"
 preserveAspectRatio="xMidYMid meet">
<metadata>
Created by potrace 1.11, written by Peter Selinger 2001-2013
</metadata>
<g transform="translate(0.000000,567.000000) scale(0.100000,-0.100000)"
fill="#000000" stroke="none">
<path d="M2855 5642 c-2 -2 -32 -8 -67 -13 -35 -4 -92 -13 -128 -18 -36 -5
-96 -21 -135 -36 -38 -15 -95 -35 -125 -45 -83 -27 -190 -78 -190 -90 0 -5 -8
-10 -19 -10 -10 0 -54 -20 -98 -45 -61 -34 -106 -72 -185 -153 -92 -95 -110
-120 -161 -221 -31 -62 -57 -120 -57 -128 0 -8 -14 -33 -31 -54 -40 -51 -48
-89 -49 -224 0 -83 5 -128 21 -180 11 -39 30 -119 41 -180 10 -60 26 -123 33
-138 20 -39 9 -117 -16 -117 -27 0 -80 -50 -100 -95 -14 -30 -19 -65 -19 -138
0 -91 4 -108 50 -247 27 -82 63 -176 80 -209 18 -37 30 -76 30 -100 0 -48 26
-71 81 -71 77 0 106 -66 119 -268 l9 -133 -31 -52 c-17 -28 -78 -102 -137
-163 -110 -114 -167 -190 -196 -260 -13 -32 -27 -44 -75 -68 -33 -16 -83 -50
-112 -76 -33 -29 -108 -75 -198 -120 -80 -40 -181 -100 -225 -133 -76 -57
-204 -127 -233 -127 -18 0 -106 -44 -246 -125 -65 -37 -175 -94 -245 -125
-143 -65 -163 -76 -209 -108 l-32 -23 0 -675 0 -674 1711 0 1710 0 -7 23 c-52
170 -289 672 -456 967 -41 72 -158 274 -168 290 -5 8 -31 51 -57 95 -26 44
-71 113 -100 153 -29 39 -51 72 -48 72 3 0 20 -7 37 -16 41 -21 118 -44 118
-34 0 4 -21 18 -47 31 -27 13 -62 35 -79 49 -17 14 -43 34 -58 44 -64 46 -186
163 -186 178 -1 7 -14 24 -30 38 -17 13 -30 28 -30 33 0 6 -8 16 -17 24 -16
13 -13 14 27 9 41 -6 43 -5 26 9 -11 8 -16 15 -10 15 5 0 2 5 -6 10 -11 7 -11
10 -2 10 8 0 1 17 -18 45 -24 35 -27 45 -15 45 9 0 14 4 11 9 -4 5 4 7 16 3
16 -4 18 -7 7 -11 -23 -9 -19 -26 6 -27 17 -1 21 3 18 16 -6 22 16 37 28 19 4
-7 11 -10 15 -6 4 4 -5 18 -19 31 -38 36 -33 39 16 12 24 -14 72 -32 108 -41
110 -28 345 -117 367 -140 15 -14 78 -38 107 -40 17 -1 39 -5 50 -9 20 -8 20
-7 1 8 -11 9 -15 16 -9 16 19 0 8 31 -18 52 -16 13 -20 21 -11 25 8 3 5 11
-10 24 -17 14 -19 19 -8 20 23 3 92 9 123 10 15 1 27 5 27 8 0 4 8 8 18 8 87
9 119 16 128 29 6 8 18 14 27 14 9 0 19 4 22 10 3 6 14 10 24 10 9 0 27 11 39
25 24 28 57 32 88 11 19 -13 22 -11 48 30 15 24 31 44 35 44 4 0 13 15 19 34
7 19 30 57 52 84 22 27 40 54 40 59 0 12 49 63 60 63 9 0 90 113 90 125 0 3 9
16 20 28 11 12 18 27 16 33 -3 7 2 15 10 18 15 6 20 36 5 36 -5 0 -13 -9 -16
-20 -3 -11 -11 -20 -16 -20 -6 0 -7 -5 -4 -10 4 -6 -5 -20 -19 -31 -14 -11
-26 -25 -26 -31 0 -11 -50 -58 -62 -58 -4 0 -10 -10 -14 -22 -9 -29 -26 -46
-42 -40 -6 2 -12 -1 -12 -7 0 -6 -4 -11 -9 -11 -5 0 -32 -16 -61 -35 -29 -19
-59 -35 -69 -35 -13 1 -13 3 4 15 70 49 95 70 95 75 0 3 -42 -15 -92 -40 -86
-41 -99 -45 -168 -44 -100 1 -148 14 -189 52 -18 18 -37 32 -42 32 -5 0 -9 5
-9 10 0 13 -32 45 -53 53 -10 4 -22 18 -27 32 -5 14 -14 25 -19 25 -6 0 -8 7
-5 15 8 21 -13 19 -25 -2 -10 -17 -10 -17 -11 1 0 15 -3 16 -15 6 -12 -10 -15
-10 -15 4 0 9 -4 16 -10 16 -5 0 -10 11 -10 24 0 14 -4 28 -10 31 -5 3 -10 15
-10 26 0 11 -7 19 -16 19 -10 0 -14 6 -10 15 3 8 1 15 -5 15 -5 0 -9 8 -7 18
2 13 -3 16 -19 14 -16 -2 -23 2 -23 13 0 11 -6 14 -24 9 -15 -3 -29 1 -40 12
-10 9 -34 17 -57 18 -39 1 -40 1 -20 17 26 21 27 33 2 26 -14 -3 -18 -1 -14 9
3 8 9 14 14 14 4 0 6 7 2 16 -5 13 -7 13 -14 2 -8 -12 -6 17 6 95 3 15 0 27
-5 27 -6 0 -10 7 -10 15 0 8 -9 23 -20 32 -11 10 -20 23 -20 31 0 7 -4 11 -9
7 -5 -3 -12 -1 -16 5 -3 5 1 10 9 10 9 0 16 8 16 18 0 14 -2 15 -10 2 -7 -11
-8 -5 -3 20 3 19 10 38 16 41 5 4 3 9 -4 12 -11 4 -12 7 -1 15 15 10 7 81 -13
122 -7 14 -10 31 -8 38 3 7 -7 24 -21 39 -18 17 -26 37 -26 59 0 18 -4 35 -9
38 -4 3 -11 28 -15 55 -4 28 -11 53 -17 57 -6 3 -8 17 -5 29 3 13 2 26 -3 30
-14 8 -10 66 5 72 19 7 -4 40 -34 48 l-25 6 23 25 c13 13 30 24 37 24 7 0 22
6 33 12 16 10 24 10 40 0 26 -16 30 -15 30 7 0 16 5 18 39 14 33 -5 39 -2 44
18 3 13 1 29 -5 36 -6 8 -8 16 -5 19 8 8 83 16 160 17 46 1 67 5 67 14 0 19
19 26 36 12 8 -6 12 -14 10 -16 -4 -4 99 -63 110 -63 6 0 -29 74 -46 94 -46
57 -186 74 -296 36 -64 -22 -95 -21 -72 4 7 8 15 12 18 11 3 -2 12 0 20 5 11
7 11 11 1 24 -11 13 -11 16 3 16 19 0 21 11 4 28 -9 9 -9 12 1 12 7 0 9 4 6
10 -3 6 1 7 9 4 9 -3 16 -1 16 6 0 6 3 9 8 7 4 -3 13 1 20 9 11 12 10 14 -3
14 -14 0 -14 2 -3 13 25 26 142 45 154 26 3 -5 15 -7 27 -4 12 3 40 -2 62 -11
64 -27 93 -27 97 -1 4 29 -25 55 -71 62 -20 4 -54 15 -77 26 -23 10 -51 19
-63 19 -11 0 -21 5 -21 11 0 7 -12 10 -30 7 -21 -3 -30 0 -30 9 0 8 -5 11 -10
8 -15 -9 -40 14 -33 31 3 10 0 12 -10 9 -11 -5 -14 2 -12 32 2 21 1 32 -2 25
-3 -6 -9 -10 -14 -6 -5 3 -9 -2 -9 -10 0 -9 -5 -16 -11 -16 -7 0 -9 9 -5 23 3
14 -1 33 -10 46 -15 20 -15 24 2 42 9 10 14 22 10 26 -4 4 -10 3 -14 -3 -4 -6
-20 -14 -35 -18 -28 -7 -28 -6 -13 16 9 12 16 31 16 42 0 18 -1 18 -17 3 -17
-15 -18 -12 -19 44 -1 33 3 59 9 59 5 0 4 7 -3 15 -10 12 -10 15 4 15 19 0 21
16 4 23 -10 4 -10 6 0 6 15 1 71 62 72 78 0 7 6 16 13 20 8 4 16 15 20 25 3 9
21 19 39 23 18 4 45 14 60 23 23 13 44 14 140 6 62 -5 147 -6 188 -2 83 9 170
34 170 50 0 17 160 -20 167 -39 3 -7 11 -13 18 -13 15 0 117 -51 140 -70 8 -6
19 -9 25 -5 14 8 84 -35 110 -68 18 -22 19 -27 6 -27 -25 0 -18 -17 10 -24 20
-5 33 -24 64 -90 35 -78 53 -131 55 -166 3 -40 42 -218 62 -280 20 -63 42
-220 45 -327 4 -170 16 -96 17 111 1 112 4 214 7 227 3 13 8 60 11 104 11 169
-59 367 -141 398 -32 13 -12 17 27 6 44 -12 57 -6 57 26 0 17 -8 26 -32 35
-18 7 -27 14 -20 17 6 2 12 11 12 19 0 8 11 41 25 74 20 46 23 69 18 105 -7
53 -20 66 -32 33 -6 -18 -8 -12 -9 27 0 78 -3 87 -36 130 -17 21 -31 44 -31
49 0 16 -176 105 -207 105 -18 1 -28 6 -28 16 0 14 -12 20 -33 16 -9 -2 -95
36 -159 70 -20 10 -43 19 -50 19 -7 0 -26 7 -42 15 -28 15 -97 32 -221 55 -33
6 -81 16 -107 21 -42 10 -194 10 -203 1z m-45 -82 c0 -5 -10 -10 -22 -9 -22 0
-22 1 -3 9 11 5 21 9 23 9 1 1 2 -3 2 -9z m20 -40 c11 -7 6 -10 -20 -10 -26 0
-31 3 -20 10 8 5 17 10 20 10 3 0 12 -5 20 -10z m98 -27 c-10 -2 -26 -2 -35 0
-10 3 -2 5 17 5 19 0 27 -2 18 -5z m1007 -235 l16 -33 -21 24 c-11 13 -20 27
-20 32 0 18 10 8 25 -23z m-364 -218 c5 0 9 -4 9 -10 0 -14 -13 -12 -36 6 -17
14 -17 15 -1 10 10 -3 23 -6 28 -6z m-919 -475 c0 -5 -5 -11 -11 -13 -6 -2
-11 4 -11 13 0 9 5 15 11 13 6 -2 11 -8 11 -13z m88 -105 c0 -5 -5 -10 -11
-10 -5 0 -7 5 -4 10 3 6 8 10 11 10 2 0 4 -4 4 -10z m45 -380 c0 -10 -8 -14
-24 -12 -32 3 -39 11 -21 23 21 13 45 7 45 -11z m-375 -35 c19 -23 8 -26 -20
-5 -19 15 -21 20 -9 20 9 0 22 -7 29 -15z m-37 -52 c-7 -2 -19 -2 -25 0 -7 3
-2 5 12 5 14 0 19 -2 13 -5z m125 -801 c-2 -17 2 -34 10 -42 13 -11 13 -15 1
-24 -12 -9 -13 -22 -6 -65 6 -33 12 -49 17 -41 4 7 5 21 3 31 -3 11 0 19 7 19
9 0 11 -10 7 -30 -4 -19 -1 -34 8 -44 8 -8 15 -21 15 -28 1 -8 6 -6 15 6 8 11
15 18 16 15 5 -28 4 -51 -3 -55 -4 -3 -8 0 -8 5 0 6 -11 11 -25 11 -16 0 -25
6 -25 15 0 8 -5 15 -10 15 -6 0 -8 -12 -4 -27 4 -22 3 -25 -5 -13 -6 8 -11 27
-11 43 0 15 -4 27 -10 27 -5 0 -10 -4 -10 -10 0 -5 -4 -10 -8 -10 -10 0 -9 30
2 48 5 8 0 20 -12 30 -21 19 -39 92 -22 92 5 0 10 -11 10 -24 0 -14 4 -27 9
-31 13 -7 26 36 14 44 -15 10 -23 40 -13 46 6 4 10 -2 11 -12 0 -12 4 -9 11
10 13 35 21 35 16 -1z m142 -247 c7 -8 9 -15 6 -15 -4 0 -14 7 -22 15 -9 8
-11 15 -6 15 5 0 15 -7 22 -15z m-90 -15 c0 -5 -4 -10 -10 -10 -5 0 -10 5 -10
10 0 6 5 10 10 10 6 0 10 -4 10 -10z m40 -40 c0 -5 -2 -10 -4 -10 -3 0 -8 5
-11 10 -3 6 -1 10 4 10 6 0 11 -4 11 -10z m120 -36 c0 -8 -4 -12 -10 -9 -5 3
-10 10 -10 16 0 5 5 9 10 9 6 0 10 -7 10 -16z m297 -266 c-3 -8 -6 -5 -6 6 -1
11 2 17 5 13 3 -3 4 -12 1 -19z m458 -218 c-36 -24 -64 -28 -43 -7 15 16 36
25 58 26 8 1 2 -8 -15 -19z m-498 -306 c-3 -3 -12 -4 -19 -1 -8 3 -5 6 6 6 11
1 17 -2 13 -5z m-7 -64 c8 -5 11 -10 5 -10 -5 0 -17 5 -25 10 -8 5 -10 10 -5
10 6 0 17 -5 25 -10z m51 -48 c-7 -2 -18 1 -23 6 -8 8 -4 9 13 5 13 -4 18 -8
10 -11z"/>
<path d="M3940 5306 c0 -5 11 -24 25 -42 14 -18 26 -41 28 -51 6 -30 35 -89
36 -72 2 30 -30 106 -59 140 -16 19 -29 30 -30 25z"/>
<path d="M4022 5100 c0 -14 2 -19 5 -12 2 6 2 18 0 25 -3 6 -5 1 -5 -13z"/>
<path d="M3265 5020 c-3 -6 1 -7 9 -4 18 7 21 14 7 14 -6 0 -13 -4 -16 -10z"/>
<path d="M3220 5000 c-13 -8 -13 -10 2 -10 9 0 20 5 23 10 8 13 -5 13 -25 0z"/>
<path d="M3730 4901 c0 -5 7 -12 16 -15 24 -9 28 -7 14 9 -14 17 -30 20 -30 6z"/>
<path d="M2785 4539 c-4 -6 -4 -13 -1 -16 8 -8 36 5 36 17 0 13 -27 13 -35 -1z"/>
<path d="M3668 4333 c-10 -2 -18 -9 -18 -14 0 -5 -10 -9 -23 -9 -16 0 -23 -6
-23 -21 0 -20 7 -21 50 -3 15 6 18 4 14 -8 -6 -15 -3 -16 84 -17 15 -1 29 -5
32 -10 3 -5 14 -7 24 -4 10 2 28 -5 41 -16 13 -12 27 -21 31 -21 4 0 20 -25
36 -55 22 -42 33 -55 48 -53 18 3 20 10 17 63 -1 33 -7 62 -12 63 -5 2 -9 9
-9 16 0 15 -46 78 -65 89 -11 6 -13 4 -8 -10 6 -15 4 -16 -8 -6 -8 6 -28 11
-44 11 -17 -1 -41 2 -54 7 -18 5 -22 4 -16 -5 6 -10 2 -11 -16 -7 -47 13 -64
15 -81 10z m42 -43 c0 -5 -5 -10 -11 -10 -5 0 -7 5 -4 10 3 6 8 10 11 10 2 0
4 -4 4 -10z"/>
<path d="M3120 4092 c-5 -2 -10 -16 -10 -30 -1 -15 -7 -43 -14 -63 -16 -45 -5
-69 31 -69 18 0 24 4 20 14 -3 8 1 20 8 26 12 10 16 9 22 -5 4 -12 0 -23 -13
-32 -15 -11 -17 -17 -6 -33 6 -11 12 -35 12 -53 0 -27 -8 -40 -45 -71 l-45
-37 22 -29 c17 -21 29 -27 48 -23 20 3 27 -1 38 -27 16 -36 6 -54 -34 -64 -15
-4 -22 -11 -18 -18 5 -7 3 -8 -5 -4 -7 5 -10 10 -7 13 3 3 0 15 -6 27 -7 11
-12 33 -13 49 -3 47 -70 87 -83 49 -2 -7 -8 -12 -14 -12 -19 0 -58 -54 -69
-94 -17 -64 16 -106 83 -106 36 0 108 -39 101 -56 -7 -20 -23 -18 -23 4 -1 15
-2 15 -15 -2 -8 -11 -15 -23 -15 -28 0 -14 41 -9 56 6 11 11 36 14 101 12 101
-3 152 6 170 30 18 25 16 31 -9 30 -15 -1 -29 10 -43 32 -11 18 -35 50 -52 70
-37 41 -51 93 -35 125 14 30 22 67 28 141 4 49 0 76 -16 120 -12 31 -28 62
-36 70 -8 8 -14 21 -14 30 0 11 -11 14 -45 13 -25 -1 -49 -3 -55 -5z"/>
<path d="M3615 4083 c-48 -20 -69 -39 -60 -54 4 -5 -1 -19 -11 -30 -9 -10 -14
-22 -10 -26 9 -10 88 -3 102 8 28 23 180 28 219 8 11 -5 31 -27 44 -48 20 -33
28 -38 60 -38 20 0 26 2 15 4 -23 4 -75 53 -56 53 19 0 9 59 -10 66 -10 3 -18
10 -18 15 0 19 -89 49 -162 54 -55 4 -83 1 -113 -12z m55 -53 c0 -15 -7 -20
-25 -20 -27 0 -32 9 -13 28 18 18 38 14 38 -8z m150 -5 c0 -8 -4 -15 -10 -15
-5 0 -10 7 -10 15 0 8 5 15 10 15 6 0 10 -7 10 -15z"/>
<path d="M3625 3910 c3 -5 10 -10 16 -10 5 0 9 5 9 10 0 6 -7 10 -16 10 -8 0
-12 -4 -9 -10z"/>
<path d="M2515 3880 c3 -5 11 -10 16 -10 6 0 7 5 4 10 -3 6 -11 10 -16 10 -6
0 -7 -4 -4 -10z"/>
<path d="M3676 3567 c0 -18 11 -63 23 -101 11 -37 21 -83 21 -102 0 -32 6 -51
38 -124 20 -45 24 -68 12 -75 -5 -3 -6 -13 -3 -22 5 -13 2 -15 -19 -10 -42 11
-54 -15 -19 -40 l28 -21 18 44 c10 24 24 44 30 44 7 0 15 12 18 27 5 27 -10
73 -24 73 -16 0 -31 41 -20 54 6 7 8 16 3 20 -4 4 -8 29 -9 56 -1 52 -58 184
-74 174 -5 -3 -9 2 -9 10 0 8 -4 17 -8 20 -4 2 -7 -10 -6 -27z"/>
<path d="M3460 3525 c-10 -12 -5 -17 27 -30 36 -15 103 -13 103 3 -1 11 -69
42 -94 42 -13 0 -29 -7 -36 -15z"/>
<path d="M3003 3457 c3 -9 2 -17 -3 -17 -6 0 -10 5 -10 10 0 6 -7 10 -15 10
-13 0 -19 -16 -16 -45 0 -6 -9 -15 -21 -20 -12 -6 -26 -19 -32 -30 -6 -11 -13
-22 -16 -25 -12 -12 -19 -179 -7 -187 4 -2 7 3 7 11 0 20 14 20 30 1 10 -12 9
-15 -5 -15 -15 0 -16 -2 -4 -17 8 -9 34 -29 58 -45 25 -15 40 -28 33 -28 -6 0
-9 -7 -6 -15 4 -10 0 -15 -10 -15 -9 0 -28 -10 -41 -23 l-25 -23 44 -46 c24
-26 46 -52 48 -59 2 -7 18 -12 36 -12 18 0 32 -3 32 -7 0 -17 61 0 93 26 43
33 44 39 17 54 -12 6 -20 21 -20 37 0 14 -8 32 -17 39 -23 16 -11 27 27 26 20
0 30 4 30 14 0 12 7 14 30 9 39 -9 144 5 132 17 -5 5 -47 11 -92 14 -46 2 -86
8 -89 13 -4 4 -24 8 -45 9 -22 1 -44 6 -49 11 -16 16 3 49 33 56 36 8 50 0 51
-28 1 -20 2 -21 6 -2 9 37 25 47 62 41 20 -3 73 -8 118 -10 45 -2 88 -8 95
-12 7 -5 20 -9 28 -9 9 0 16 -11 18 -28 6 -49 -2 -56 -46 -44 -21 6 -46 7 -56
4 -15 -6 -14 -9 5 -28 26 -26 86 -41 111 -28 13 7 18 6 18 -3 0 -7 13 1 28 18
15 17 40 38 55 48 l28 17 -47 47 -48 46 -69 -3 c-50 -2 -72 1 -79 11 -7 10
-11 10 -14 1 -3 -7 -12 -9 -20 -6 -7 3 -11 9 -8 14 3 5 -3 9 -13 10 -97 3
-120 5 -132 13 -29 19 -120 35 -124 22 -7 -18 -24 5 -31 42 -3 21 -2 31 4 27
6 -3 10 5 10 18 0 14 -7 28 -16 31 -12 4 -14 14 -9 36 5 23 3 30 -8 30 -9 0
-23 3 -33 7 -13 5 -16 3 -11 -10z m71 -302 c-4 -8 -10 -12 -15 -9 -14 8 -10
24 6 24 9 0 12 -6 9 -15z"/>
<path d="M3321 2841 c-7 -5 -11 -17 -9 -27 4 -17 5 -17 17 4 14 27 12 35 -8
23z"/>
<path d="M3886 2768 c-10 -38 -6 -45 9 -18 17 29 18 40 6 40 -5 0 -11 -10 -15
-22z"/>
<path d="M3556 2170 c-3 -19 -7 -98 -10 -175 -5 -149 -17 -225 -44 -290 -24
-57 -70 -123 -98 -142 -13 -8 -24 -19 -24 -24 0 -14 33 3 58 30 14 15 28 25
33 23 5 -1 9 6 9 15 0 24 23 83 32 83 4 0 12 -9 18 -20 14 -26 42 -288 37
-348 -4 -51 6 -140 41 -367 11 -71 23 -184 27 -250 4 -66 17 -196 31 -290 13
-93 29 -225 35 -292 l12 -123 979 0 978 0 0 363 0 364 -51 84 c-28 46 -59 93
-70 105 -10 11 -19 28 -19 37 0 9 -14 27 -31 39 -43 31 -79 115 -72 165 4 31
-2 53 -26 101 -17 34 -31 67 -31 74 0 70 -218 218 -319 218 -15 0 -66 17 -112
39 -169 77 -195 89 -269 115 -99 36 -274 76 -380 86 -75 8 -98 15 -195 65
-130 67 -206 113 -296 177 -36 26 -88 57 -115 68 -28 12 -64 38 -86 63 l-36
42 -6 -35z"/>
<path d="M2980 2046 c0 -2 7 -6 15 -10 8 -3 15 -1 15 4 0 6 -7 10 -15 10 -8 0
-15 -2 -15 -4z"/>
<path d="M2970 1901 c0 -6 9 -15 21 -21 11 -7 18 -14 15 -18 -4 -3 -20 4 -36
16 -32 24 -50 28 -50 11 0 -6 -8 -8 -19 -4 -11 3 -23 0 -27 -7 -4 -6 -2 -14 4
-16 17 -5 15 -22 -3 -22 -8 0 -15 -3 -15 -8 0 -12 44 -47 60 -47 9 0 14 -8 12
-19 -3 -14 1 -17 13 -12 9 3 13 2 10 -4 -3 -6 -5 -10 -3 -10 2 0 18 -4 36 -9
20 -6 30 -6 27 0 -4 5 8 9 24 9 17 0 31 5 31 10 0 6 10 10 23 10 18 0 19 2 7
11 -13 9 -13 11 0 16 9 4 0 10 -25 17 -22 7 -41 17 -41 24 -1 7 -3 15 -4 20
-1 4 -2 10 -1 14 0 4 -13 16 -29 28 -17 12 -30 17 -30 11z"/>
<path d="M2815 1830 c3 -5 11 -10 16 -10 6 0 7 5 4 10 -3 6 -11 10 -16 10 -6
0 -7 -4 -4 -10z"/>
<path d="M3080 1410 c0 -5 5 -10 10 -10 6 0 10 5 10 10 0 6 -4 10 -10 10 -5 0
-10 -4 -10 -10z"/>
<path d="M2968 1363 c7 -3 16 -2 19 1 4 3 -2 6 -13 5 -11 0 -14 -3 -6 -6z"/>
<path d="M2850 1349 c0 -5 5 -7 10 -4 6 3 10 8 10 11 0 2 -4 4 -10 4 -5 0 -10
-5 -10 -11z"/>
<path d="M2815 1330 c4 -6 11 -8 16 -5 14 9 11 15 -7 15 -8 0 -12 -5 -9 -10z"/>
<path d="M2985 1330 c3 -5 8 -10 11 -10 2 0 4 5 4 10 0 6 -5 10 -11 10 -5 0
-7 -4 -4 -10z"/>
<path d="M3025 1260 c3 -5 8 -10 11 -10 2 0 4 5 4 10 0 6 -5 10 -11 10 -5 0
-7 -4 -4 -10z"/>
</g>
</svg>
